<?xml version="1.0" encoding="UTF-8" standalone="no"?>
<!-- Created with Inkscape (http://www.inkscape.org/) -->

<svg
   width="210mm"
   height="297mm"
   viewBox="0 0 210 297"
   version="1.1"
   id="svg5"
   inkscape:version="1.1.1 (3bf5ae0d25, 2021-09-20)"
   sodipodi:docname="logo.svg"
   xmlns:inkscape="http://www.inkscape.org/namespaces/inkscape"
   xmlns:sodipodi="http://sodipodi.sourceforge.net/DTD/sodipodi-0.dtd"
   xmlns="http://www.w3.org/2000/svg"
   xmlns:svg="http://www.w3.org/2000/svg">
  <sodipodi:namedview
     id="namedview7"
     pagecolor="#1a1a8c"
     bordercolor="#666666"
     borderopacity="1.0"
     inkscape:pageshadow="2"
     inkscape:pageopacity="0.53333333"
     inkscape:pagecheckerboard="0"
     inkscape:document-units="mm"
     showgrid="false"
     inkscape:zoom="0.9264871"
     inkscape:cx="607.13204"
     inkscape:cy="684.30527"
     inkscape:window-width="1350"
     inkscape:window-height="728"
     inkscape:window-x="47"
     inkscape:window-y="-5"
     inkscape:window-maximized="0"
     inkscape:current-layer="layer1" />
  <defs
     id="defs2" />
  <g
     inkscape:label="Camada 1"
     inkscape:groupmode="layer"
     id="layer1">
    <path
       style="fill:#1a1a1a;stroke:#000000;stroke-width:0.205546px;stroke-linecap:butt;stroke-linejoin:miter;stroke-opacity:1"
       d="m 58.079157,201.72455 c 0,0 2.02364,1.97011 4.46887,2.33495 2.445238,0.36483 3.288408,0.4378 4.637508,0.8756 1.3491,0.4378 1.3491,0.4378 1.3491,0.4378 0,0 0.84318,0.43781 1.93932,1.45935 1.09614,1.02154 1.09614,1.02154 1.09614,1.02154 0,0 1.01183,0.2189 1.68637,0.29187 0.67454,0.073 0.67454,-1.67825 0.67454,-2.55386 0,-0.8756 -1.43341,-4.15912 -3.71,-5.9833 -2.2766,-1.82417 -3.37274,-3.57538 -3.79434,-4.37802 -0.42158,-0.80264 -0.42158,-0.80264 -0.42158,-0.80264 0,0 -0.33728,-7.58858 3.79432,-9.85056 4.1316,-2.26198 4.1316,-2.26198 4.1316,-2.26198 0,0 5.81798,-6.05627 7.25138,-8.09934 1.43342,-2.04309 1.43342,-2.04309 1.43342,-2.04309 0,0 8.09457,-4.81582 15.34595,-6.27517 7.251375,-1.45934 6.829775,-2.04307 7.420005,-1.53231 0.59024,0.51077 0.59024,0.51077 0.59024,0.51077 0,0 10.53979,-0.8756 15.5989,-2.18901 5.05911,-1.31341 9.94958,-2.11604 10.9614,-2.11604 1.01181,0 1.09613,1.24044 -4.21593,8.09934 -5.31205,6.85891 -4.55319,9.12089 -4.55319,9.12089 0,0 2.95114,0.21891 4.80615,-0.2189 1.855,-0.4378 1.855,-0.4378 1.855,-0.4378 0,0 2.10797,-0.72967 3.79433,-1.09451 1.68637,-0.36484 1.68637,-0.36484 1.68637,-0.36484 0,0 5.14343,-1.89714 6.32388,-4.15912 1.18046,-2.26198 0.67455,-6.27517 2.7825,-7.73451 2.10797,-1.45934 3.03547,-2.11605 5.4807,-1.53231 2.44524,0.58373 10.5398,1.02154 13.82822,0.72967 3.28842,-0.29187 11.80458,-1.45934 13.99686,-2.11605 2.19228,-0.6567 6.91411,-1.60527 7.58865,-2.18901 0.67455,-0.58374 0.67455,-0.58374 0.67455,-0.58374 0,0 -0.16864,-0.36483 -0.16864,-0.6567 0,-0.29187 0.33728,0.2189 1.01182,-0.72967 0.67455,-0.94857 1.09614,-2.04308 0.50591,-3.06462 -0.59022,-1.02154 -2.27659,-2.69978 -2.52955,-3.35649 -0.25295,-0.6567 -0.33727,-0.6567 -0.33727,-0.6567 0,0 0,-1.02154 -0.25296,-1.82417 -0.25295,-0.80265 -0.25295,-0.80265 -0.25295,-0.80265 0,0 -1.85501,-2.48087 -3.87865,-4.15912 -2.02364,-1.67824 -2.02364,-1.67824 -2.02364,-1.67824 0,0 -3.28842,-2.40791 -4.80615,-4.59693 -1.51773,-2.18901 -5.39638,-4.52396 -9.86525,-5.7644 -4.46888,-1.24044 -4.46888,-1.24044 -4.46888,-1.24044 0,0 -8.76911,-3.42946 -10.45548,-4.08616 -1.68637,-0.6567 -1.68637,-0.6567 -1.68637,-0.6567 0,0 -9.94957,-2.99165 -17.03232,-3.28352 -7.08274,-0.29187 -15.68322,-0.14594 -17.79117,-2.84572 -2.10797,-2.69978 -11.13003,-5.69143 -14.924365,-7.73451 -3.79432,-2.04308 -3.79432,-2.11605 -3.79432,-2.11605 0,0 -4.55319,-2.04308 -5.56502,-2.40791 -1.01182,-0.36484 -1.01182,-0.36484 -1.01182,-0.36484 0,0 -2.10796,-0.4378 -2.78251,0.51077 -0.67454,0.94857 -0.67454,0.94857 -0.67454,0.94857 0,0 -1.68638,1.53231 2.19228,3.13759 3.87864,1.60528 7.58864,4.96176 10.1182,8.68308 2.52956,3.72133 2.36092,3.94023 -0.84318,6.85891 -3.2041,2.91869 -3.2041,2.91869 -3.2041,2.91869 0,0 -9.69662,8.24528 -10.96139,9.70462 -1.26478,1.45934 -11.97322,12.55034 -15.34595,19.40925 -3.372728,6.8589 -3.372728,6.8589 -3.372728,6.8589 0,0 -6.40821,19.48222 -7.42003,21.74421 -1.01181,2.26197 -2.2766,7.5156 -6.32387,9.41275 -4.04729,1.89714 -8.34753,3.94022 -9.35935,10.8721 -1.01182,6.93187 -1.3491,7.22374 -0.67455,8.24528 0.67455,1.02154 2.78251,2.11605 4.55319,0.073 1.77069,-2.04308 3.03547,-4.8888 4.46889,-6.42111 1.4334,-1.53231 4.63751,-3.06462 6.32388,-3.86726 1.68636,-0.80263 1.68636,-0.80263 1.68636,-0.80263 0,0 0,0.14593 0.84319,-1.02154 0.84318,-1.16748 1.60205,-1.60528 1.60205,-1.60528 z"
       id="path54" />
    <path
       style="fill:#ffffff;stroke:#ffffff;stroke-width:0.205546px;stroke-linecap:butt;stroke-linejoin:miter;stroke-opacity:1"
       d="m 109.93497,164.51133 c 0,0 -7.42003,0.62022 -8.64265,0.76616 -1.22261,0.14593 -8.853425,2.29846 -9.401485,2.55384 -0.54807,0.25539 -6.74548,3.06462 -7.63082,3.53891 -0.88534,0.47428 -1.39126,0.14593 0.54807,-0.94858 1.93932,-1.0945 2.78251,-1.60527 3.92081,-2.04308 1.13829,-0.4378 3.20409,-0.72966 1.98148,-2.00659 -1.22262,-1.27693 -3.45706,-1.93363 -5.43854,-1.38638 -1.98148,0.54726 -7.25139,2.88221 -7.92592,3.13759 -0.67456,0.25538 -3.41491,1.05802 -3.92081,-1.42286 -0.50591,-2.48088 -0.33728,-5.50902 2.52955,-7.771 2.86683,-2.26197 4.55319,-4.04967 5.14343,-4.45099 0.59022,-0.40132 4.34239,-1.24044 7.08274,-0.29187 2.74034,0.94858 6.82979,3.28352 9.27502,5.07121 2.44523,1.7877 5.691485,4.15913 6.576835,4.48749 0.88533,0.32835 0.96965,0.32835 0.96965,0.32835 0,0 1.22263,0.47428 2.36092,0.47428 1.1383,0 2.57172,-0.0365 2.57172,-0.0365 z"
       id="path1069" />
    <path
       style="fill:#ffffff;stroke:#ffffff;stroke-width:0.205546px;stroke-linecap:butt;stroke-linejoin:miter;stroke-opacity:1"
       d="m 187.88733,156.04714 c 0,0 -0.4216,1.16748 -0.71671,1.20396 -0.29512,0.0365 -0.64293,0.20978 -0.64293,0.20978 l 0.0527,0.62934 c 0,0 -0.35835,0.70231 -1.26478,0.98506 -0.90642,0.28274 -0.90642,0.28274 -0.90642,0.28274 0,0 -6.22902,1.63264 -6.57683,1.73297 -0.34782,0.10033 -7.26193,1.21309 -7.6519,1.27693 -0.38997,0.0638 -5.57555,0.77527 -6.93519,0.77527 -1.35963,0 -7.11436,-0.11857 -8.02079,-0.20066 -0.90642,-0.0821 -4.25808,-0.58373 -5.1118,-0.69318 -0.85372,-0.10945 -0.85372,-0.10945 -0.85372,-0.10945 0,0 -1.09614,0.009 -1.28586,0.0912 -0.18972,0.0821 -0.18972,0.0821 -0.18972,0.0821 0,0 -3.21463,-0.96682 -4.09998,-1.45023 -0.88534,-0.4834 -2.80359,-1.23132 -3.07762,-2.22549 -0.27404,-0.99418 -0.25295,-1.70561 -0.0633,-1.95187 0.18971,-0.24626 2.79305,-2.19814 3.58353,-2.67243 0.79049,-0.47428 0.79049,-0.47428 0.79049,-0.47428 0,0 2.7825,-1.64176 4.53211,-1.91539 1.74961,-0.27362 4.2897,-0.63846 6.41874,-0.23714 2.12904,0.40132 6.06038,1.55968 7.30408,1.961 1.2437,0.40131 1.2437,0.40131 1.2437,0.40131 0,0 5.17504,1.1766 6.3028,1.36814 1.12775,0.19153 7.85215,1.23132 9.22232,1.41373 1.37018,0.18242 4.77453,0.72055 5.28044,0.72055 0.50591,0 0.57969,0.16418 1.04344,-0.073 0.46375,-0.23714 0.75887,-0.33747 1.02236,-0.60197 0.2635,-0.26451 0.60077,-0.52902 0.60077,-0.52902 z"
       id="path1238" />
    <path
       style="fill:#ffffff;stroke:#ffffff;stroke-width:0.205546px;stroke-linecap:butt;stroke-linejoin:miter;stroke-opacity:1"
       d="m 148.89834,140.73192 c 0,0 6.82979,0.40132 9.19071,2.69978 2.36091,2.29846 2.74035,3.21055 2.74035,3.21055 0,0 -5.86013,2.84572 -10.16037,2.48088 -4.30024,-0.36483 -4.30024,-0.36483 -4.30024,-0.36483 0,0 -4.38455,-1.20396 -5.4807,-2.04308 -1.09613,-0.83912 -1.1383,-0.83912 -1.1383,-0.83912 l -1.4334,-0.94858 -0.16865,-2.51736 c 0,0 2.02365,-1.13099 3.6257,-1.42286 1.60205,-0.29186 3.49921,-0.62022 4.80615,-0.4378 1.30693,0.18242 1.1383,0.2189 1.30693,0.18242 0.16864,-0.0365 1.01182,0 1.01182,0 z"
       id="path1499" />
    <path
       style="opacity:1;fill:#ffffff;stroke:#000000;stroke-width:0.264583px;stroke-linecap:butt;stroke-linejoin:miter;stroke-opacity:1"
       d="m 93.776272,202.58136 c 0,0 0.328141,-1.06015 1.590225,-1.26208 1.262084,-0.20194 2.246508,-0.10097 3.003759,0.32814 0.757251,0.42911 2.599894,0.32814 2.877554,0.35338 0.27766,0.0252 0.27766,0.0252 0.27766,0.0252 0,0 0.9087,1.0854 1.18636,1.33781 0.27765,0.25242 0.732,0.70677 1.53974,0.22718 0.80773,-0.47959 1.46401,-0.42911 2.06981,-0.25242 0.6058,0.17669 1.41354,0.22718 0.55532,0.73201 -0.85821,0.50483 -2.19602,1.36305 -3.15521,1.59023 -0.95918,0.22717 -1.64071,0.9087 -2.65037,0.32814 -1.00967,-0.58056 -1.211604,-1.36305 -4.114398,-0.22718 0,0 -1.110632,1.23689 -1.489257,1.74172 -0.378625,0.50483 -1.262084,1.2116 -2.27175,1.5145 -1.009667,0.3029 -1.337809,0.12621 -1.236842,0.42911 0.100966,0.3029 0.3029,0.45435 0.732008,0.58056 0.429109,0.12621 0.631042,0.17669 0.807734,0.0757 0.176691,-0.10096 0.07572,-0.50483 0.429108,-0.68152 0.353383,-0.17669 0.959184,-0.73201 1.615467,-0.32814 0.656284,0.40386 1.994092,1.59022 2.599892,1.61546 0.605801,0.0252 1.766917,-0.15145 1.968848,-0.45435 0.20194,-0.3029 1.13588,-1.56498 1.41354,-1.8174 0.27766,-0.25241 0.65628,-0.85821 0.98442,-1.11063 0.32814,-0.25242 1.89313,-0.20193 2.4232,-0.25242 0.53008,-0.0505 0.9087,0.0252 1.11064,0.0757 0.20193,0.0505 0.80773,-0.80774 1.23684,-1.03491 0.42911,-0.22718 7.62298,-3.12997 7.62298,-3.12997 l 6.41139,-2.47368 5.88131,-2.39796 c 0,0 -2.01934,-0.22718 -2.47369,-0.17669 -0.45435,0.0505 -6.43662,1.91836 -7.21911,2.14554 -0.7825,0.22717 -6.91622,2.17078 -6.91622,2.17078 0,0 -0.73201,0.37863 -1.2116,0.42911 -0.47959,0.0505 -0.70677,0.12621 -0.85822,-0.12621 -0.15145,-0.25241 -0.65628,-0.83297 -0.65628,-0.83297 0,0 0.0252,0.98442 0,1.2116 -0.0252,0.22717 -0.68153,-0.45435 -0.9087,-0.53008 -0.22718,-0.0757 -3.5086,-1.38829 -3.71053,-1.41353 -0.20193,-0.0252 -0.40387,-0.17669 -0.37862,-0.47959 0.0252,-0.3029 -0.1767,-0.6058 -0.32815,-0.37863 -0.15145,0.22718 -0.0757,0.50484 -0.4291,0.40387 -0.35339,-0.10097 -0.70677,-0.58056 -1.86789,-0.73201 -1.161116,-0.15145 -2.726099,-0.47959 -3.9377,-0.20193 -1.2116,0.27766 -2.069817,0.75725 -2.498925,0.98442 -0.429109,0.22718 -1.034909,0.70677 -1.135876,1.03491 -0.100966,0.32814 -0.100966,0.93394 0.227176,1.13588 0.328141,0.20193 0.681525,0.32814 0.782491,0.17669 0.100967,-0.15145 0.100966,-0.35339 0.100966,-0.35339 z"
       id="path1559" />
    <ellipse
       style="opacity:1;fill:#000000;stroke:#ffffff;stroke-width:0.312096"
       id="path1682"
       cx="108.9833"
       cy="204.19389"
       rx="0.54739732"
       ry="0.58950484" />
    <ellipse
       style="opacity:1;fill:#000000;stroke:#ffffff;stroke-width:0.247394"
       id="path1930"
       cx="-2.9291153"
       cy="229.86699"
       rx="2.2703934"
       ry="1.9268737"
       transform="matrix(0.86844205,-0.49579069,0.43991244,0.89804067,0,0)" />
    <path
       style="fill:#ffffff;stroke:#000000;stroke-width:0.264583px;stroke-linecap:butt;stroke-linejoin:miter;stroke-opacity:1"
       d="m 110.71343,205.25698 1.94361,-0.78249 c 0,0 7.92589,2.24651 10.09667,3.48335 2.17079,1.23684 2.17079,1.23684 2.17079,1.23684 0,0 0,0.47959 -0.40387,1.59023 -0.40387,1.11063 -0.40387,1.11063 -0.40387,1.11063 l -9.79377,-3.50859 c 0,0 0.35339,-0.20194 0.4796,-0.63105 0.1262,-0.4291 0.70676,-0.40386 0.0757,-0.58055 -0.63104,-0.17669 -0.95918,-0.22718 -1.66595,-0.63104 -0.70677,-0.40387 -0.75725,-0.75726 -1.38829,-0.93395 -0.63104,-0.17669 -1.11064,-0.35338 -1.11064,-0.35338 z"
       id="path2117" />
    <text
       xml:space="preserve"
       style="font-style:normal;font-weight:normal;font-size:25.4px;line-height:1.25;font-family:sans-serif;fill:#ffffff;fill-opacity:1;stroke:none;stroke-width:0.969969;stroke-miterlimit:4;stroke-dasharray:none;stroke-opacity:1"
       x="25.888866"
       y="165.72577"
       id="text3854"
       transform="scale(1.0131901,0.98698162)"><tspan
         sodipodi:role="line"
         id="tspan3852"
         style="font-style:normal;font-variant:normal;font-weight:normal;font-stretch:normal;font-size:25.4px;font-family:Freshman;-inkscape-font-specification:Freshman;fill:#ffffff;stroke:none;stroke-width:0.969969;stroke-miterlimit:4;stroke-dasharray:none;stroke-opacity:1"
         x="25.888866"
         y="165.72577">JR</tspan></text>
    <path
       style="fill:#ffffff;stroke:#ffffff;stroke-width:1.47301;stroke-linecap:butt;stroke-linejoin:miter;stroke-miterlimit:4;stroke-dasharray:none;stroke-opacity:1"
       d="m 84.994844,203.6759 c -22.526004,5.75615 -41.58305,3.85554 -59.754404,0"
       id="path16184"
       sodipodi:nodetypes="cc" />
    <path
       style="fill:#ffffff;stroke:#ffffff;stroke-width:1.47301;stroke-linecap:butt;stroke-linejoin:miter;stroke-miterlimit:4;stroke-dasharray:none;stroke-opacity:1"
       d="m 196.71911,203.05438 c -22.526,5.75615 -41.58305,3.85554 -59.7544,0"
       id="path16184-5"
       sodipodi:nodetypes="cc" />
    <path
       style="fill:#1a1a1a;stroke:#1a1a1a;stroke-width:0.450601px;stroke-linecap:butt;stroke-linejoin:miter;stroke-opacity:1"
       d="m 173.00666,151.53723 -48.03384,-17.38741 -21.12897,-0.29916 19.83919,-4.04881 60.87371,19.84322 z"
       id="path16341" />
    <text
       xml:space="preserve"
       style="font-style:normal;font-weight:normal;font-size:25.40000031px;line-height:1.25;font-family:sans-serif;opacity:1;fill:#ffffff;fill-opacity:1;stroke:none;stroke-width:1.42523;stroke-miterlimit:4;stroke-dasharray:none;stroke-opacity:1"
       x="31.190742"
       y="168.55745"
       id="text9270"
       transform="scale(0.87283674,1.1456896)"><tspan
         sodipodi:role="line"
         id="tspan9268"
         style="font-style:normal;font-variant:normal;font-weight:normal;font-stretch:normal;font-family:Freshman;-inkscape-font-specification:Freshman;fill:#ffffff;fill-opacity:1;stroke:none;stroke-width:1.42523;stroke-miterlimit:4;stroke-dasharray:none;stroke-opacity:1;font-size:25.40000031px"
         x="31.190742"
         y="168.55745">BARBERSHOP</tspan></text>
  </g>
</svg>
